<svg xmlns="http://www.w3.org/2000/svg" viewBox="0 0 192 192" width="192" height="192">
  <rect width="192" height="192" rx="38" fill="#87CEEB"/>
  <circle cx="96" cy="65" r="34" fill="#FCD34D"/>
  <line x1="96" y1="20" x2="96" y2="28" stroke="#FCD34D" stroke-width="5" stroke-linecap="round"/>
  <line x1="96" y1="102" x2="96" y2="110" stroke="#FCD34D" stroke-width="5" stroke-linecap="round"/>
  <line x1="51" y1="65" x2="59" y2="65" stroke="#FCD34D" stroke-width="5" stroke-linecap="round"/>
  <line x1="133" y1="65" x2="141" y2="65" stroke="#FCD34D" stroke-width="5" stroke-linecap="round"/>
  <line x1="64" y1="33" x2="70" y2="39" stroke="#FCD34D" stroke-width="5" stroke-linecap="round"/>
  <line x1="122" y1="91" x2="128" y2="97" stroke="#FCD34D" stroke-width="5" stroke-linecap="round"/>
  <line x1="128" y1="33" x2="122" y2="39" stroke="#FCD34D" stroke-width="5" stroke-linecap="round"/>
  <line x1="70" y1="91" x2="64" y2="97" stroke="#FCD34D" stroke-width="5" stroke-linecap="round"/>
  <ellipse cx="96" cy="140" rx="52" ry="22" fill="white"/>
  <ellipse cx="74" cy="128" rx="28" ry="24" fill="white"/>
  <ellipse cx="112" cy="126" rx="24" ry="22" fill="white"/>
  <ellipse cx="92" cy="118" rx="22" ry="20" fill="white"/>
  <circle cx="82" cy="134" r="5" fill="#1F2937"/>
  <circle cx="108" cy="134" r="5" fill="#1F2937"/>
  <circle cx="83.5" cy="132.5" r="1.8" fill="white"/>
  <circle cx="109.5" cy="132.5" r="1.8" fill="white"/>
  <path d="M86 143 Q96 151 106 143" stroke="#1F2937" stroke-width="3" fill="none" stroke-linecap="round"/>
</svg>
