<svg xmlns="http://www.w3.org/2000/svg" viewBox="0 0 512 512" width="512" height="512">
  <rect width="512" height="512" rx="102" fill="#87CEEB"/>
  <circle cx="256" cy="170" r="90" fill="#FCD34D"/>
  <line x1="256" y1="50" x2="256" y2="72" stroke="#FCD34D" stroke-width="12" stroke-linecap="round"/>
  <line x1="256" y1="268" x2="256" y2="290" stroke="#FCD34D" stroke-width="12" stroke-linecap="round"/>
  <line x1="136" y1="170" x2="158" y2="170" stroke="#FCD34D" stroke-width="12" stroke-linecap="round"/>
  <line x1="354" y1="170" x2="376" y2="170" stroke="#FCD34D" stroke-width="12" stroke-linecap="round"/>
  <line x1="171" y1="85" x2="187" y2="101" stroke="#FCD34D" stroke-width="12" stroke-linecap="round"/>
  <line x1="325" y1="239" x2="341" y2="255" stroke="#FCD34D" stroke-width="12" stroke-linecap="round"/>
  <line x1="341" y1="85" x2="325" y2="101" stroke="#FCD34D" stroke-width="12" stroke-linecap="round"/>
  <line x1="187" y1="239" x2="171" y2="255" stroke="#FCD34D" stroke-width="12" stroke-linecap="round"/>
  <ellipse cx="256" cy="375" rx="140" ry="58" fill="white"/>
  <ellipse cx="198" cy="342" rx="75" ry="64" fill="white"/>
  <ellipse cx="300" cy="338" rx="64" ry="58" fill="white"/>
  <ellipse cx="246" cy="314" rx="58" ry="52" fill="white"/>
  <circle cx="220" cy="358" r="14" fill="#1F2937"/>
  <circle cx="290" cy="358" r="14" fill="#1F2937"/>
  <circle cx="224" cy="354" r="5" fill="white"/>
  <circle cx="294" cy="354" r="5" fill="white"/>
  <path d="M230 385 Q256 405 282 385" stroke="#1F2937" stroke-width="7" fill="none" stroke-linecap="round"/>
  <ellipse cx="200" cy="374" rx="20" ry="12" fill="#fca5a5" opacity="0.4"/>
  <ellipse cx="310" cy="374" rx="20" ry="12" fill="#fca5a5" opacity="0.4"/>
</svg>
